<svg width="657" height="342" viewBox="0 0 657 342" fill="none" xmlns="http://www.w3.org/2000/svg">
<g opacity="0.5">
<path d="M197.353 198.715L130.493 247.513L193.898 247.589L244.941 411.536L220.28 429.576L238.319 496.505L328.304 532.677L418.289 496.521L436.343 429.591L411.682 411.551L462.786 247.635L526.115 247.513L467.46 204.662L507.954 179.928H600.907C613.371 172.099 622.656 160.091 627.106 146.044C633.576 124.923 627.837 100.722 610.041 74.0816L547.458 -19.5498L547.61 98.6637H393.262L384.508 71.7027H520.543V-38.947L553.471 -59L632.404 59.0914C665.895 109.155 658.542 146.547 646.516 169.116C640.986 179.417 633.54 188.563 624.579 196.062C618.657 200.987 610.147 206.873 603.267 206.873H515.413L583.842 257.197L555.344 274.581H482.546L443.087 401.151L467.353 418.825L440.332 517.946L328.38 560.812L216.443 517.946L189.407 418.825L213.597 401.136L174.153 274.566H101.355L72.8575 257.181L141.362 206.858H53.3869C46.4603 206.858 37.9505 200.972 32.0743 196.046C23.0985 188.557 15.6368 179.416 10.0919 169.116C-1.93445 146.547 -9.24162 109.155 24.2191 59.0914L103.137 -59L136.064 -38.9623V71.7027H272.115L263.361 98.6637H136.034H109.15V-19.5498L46.5821 74.0816C28.7709 100.722 23.0317 124.923 29.5168 146.044C33.9679 160.086 43.2457 172.092 55.7008 179.928H166.496L197.353 198.715Z" fill="#0C0D10"/>
<path d="M236.221 317.315L271.912 207.038L178.411 138.884H294.032L329.738 28.6223L365.443 138.884H480.973L387.503 207.038L423.208 317.315L329.738 249.161L236.221 317.315ZM329.692 215.801L372 246.657L355.844 196.732L398.167 165.877H345.864L329.707 115.952L313.535 165.877H261.232L303.555 196.732L287.384 246.657L329.692 215.801Z" fill="#0C0D10"/>
</g>
</svg>
